<svg width="100%" height="100%" viewBox="0 0 303 91" fill="currentColor" xmlns="http://www.w3.org/2000/svg" style="width: 160px;"><path d="M45.8786 21.5982H19.4732C13.4724 21.5982 9.29545 16.777 10.1387 10.8282C10.1387 10.8282 10.1387 10.8477 10.1387 10.8574L0.117798 80.1523C0.117798 80.1523 0.117798 80.2009 0.117798 80.2301C1.01987 74.3008 6.5696 69.5088 12.5508 69.5088H49.8889L55.2524 32.4458C56.1152 26.4582 51.9186 21.5982 45.8786 21.5982Z" fill="url(#paint0_linear_2671_9655)"></path><path d="M69.6169 0.00972014H22.6403C16.6003 0.00972014 11.0015 4.86007 10.1387 10.8477C10.1387 10.8477 10.1387 10.838 10.1387 10.8282C9.29543 16.777 13.4626 21.5982 19.4732 21.5982H45.8786C51.9185 21.5982 56.1152 26.4485 55.2523 32.4458L49.8889 69.5088H59.5764C65.6164 69.5088 71.2152 64.6584 72.0878 58.6611L79.0005 10.8477C79.8633 4.86007 75.6667 0 69.6267 0L69.6169 0.00972014Z" fill="url(#paint1_linear_2671_9655)"></path><path d="M12.541 69.5087C6.54999 69.5087 1.00025 74.3008 0.107978 80.23C0.107978 80.2203 0.107978 80.2106 0.107978 80.2009C-0.735268 86.1691 3.45156 91 9.48175 91H35.8283C41.8682 91 47.467 86.1496 48.3397 80.1523L49.8791 69.5087H12.541Z" fill="url(#paint2_linear_2671_9655)"></path><path d="M94.8457 65.3583V17.1852H117.182C126.683 17.1852 132.409 21.0636 132.409 29.1896C132.409 34.7981 129.223 38.6084 122.977 39.5416V40.1151C130.38 41.0482 134.145 45.7916 134.145 52.1194C134.145 60.3135 128.272 65.3486 118.045 65.3486H94.8359L94.8457 65.3583ZM102.68 37.1699H116.466C122.339 37.1699 124.663 35.5855 124.663 30.6962C124.663 25.807 122.555 24.1546 116.682 24.1546H102.68V37.1699ZM102.68 58.3792H117.839C123.712 58.3792 126.252 56.7268 126.252 51.0502C126.252 45.3737 123.712 43.6435 117.839 43.6435H102.68V58.3792Z" fill="black"></path><path d="M136.263 41.2718C136.263 26.2444 144.823 16.4659 158.962 16.4659C172.022 16.4659 179.925 23.6589 179.925 35.2355V35.6632H171.581V35.2355C171.581 27.3233 167.885 23.9505 158.746 23.9505C148.666 23.9505 144.607 28.7716 144.607 41.2815C144.607 53.7913 148.666 58.6125 158.746 58.6125C167.885 58.6125 171.581 55.2299 171.581 47.3274V46.8997H179.925V47.3274C179.925 58.9041 172.022 66.097 158.962 66.097C144.813 66.097 136.263 56.3185 136.263 41.2912V41.2718Z" fill="black"></path><path d="M183.485 65.3583V17.1852H191.319V65.3583H183.485Z" fill="black"></path><path d="M196.467 77.8V29.627H203.575V35.5271H203.938C205.605 31.3572 209.743 28.9077 215.979 28.9077C226.137 28.9077 231.716 36.1687 231.716 47.5315C231.716 58.8944 226.274 66.0873 216.489 66.0873C210.037 66.0873 206.046 63.1421 204.448 59.8275H204.232V77.8H196.467ZM214.096 59.4678C220.989 59.4678 223.892 56.3088 223.892 47.5315C223.892 38.7542 221.068 35.5271 214.096 35.5271C207.713 35.5271 204.232 38.3265 204.232 44.2947V50.6906C204.232 56.6587 207.713 59.4581 214.096 59.4581V59.4678Z" fill="black"></path><path d="M233.962 56.5129C233.962 50.6128 238.315 47.5218 246.003 46.4429L258.622 44.5766V42.6326C258.622 37.3157 256.161 35.7313 250.493 35.7313C244.826 35.7313 242.512 37.5295 242.512 42.2729V43.3519H234.972V42.6326C234.972 34.6523 241.286 28.898 250.925 28.898C260.563 28.898 266.084 34.9342 266.084 43.6435V65.3583H258.828V59.7497H258.465C256.357 63.1324 252.229 66.0776 245.404 66.0776C238.953 66.0776 233.942 62.7727 233.942 56.5129H233.962ZM247.964 59.8956C253.043 59.8956 258.622 57.8835 258.622 50.6906V50.0393L247.16 51.7695C243.022 52.343 241.571 53.2761 241.571 55.9395C241.571 58.7389 243.385 59.8956 247.954 59.8956H247.964Z" fill="black"></path><path d="M268.702 76.935V70.6071H273.634C276.752 70.6071 277.84 70.1017 278.997 67.4481L280.38 64.4251L265.074 29.627H273.702L280.958 46.958L284.223 54.7244H284.802L287.773 46.958L294.371 29.627H303L285.959 69.606C283.272 75.9338 279.791 77.5862 274.134 77.5862C272.173 77.5862 269.927 77.2946 268.692 76.935H268.702Z" fill="black"></path><defs><linearGradient id="paint0_linear_2671_9655" x1="-1.5883" y1="79.4622" x2="41.7394" y2="22.08" gradientUnits="userSpaceOnUse"><stop stop-color="#5538D9"></stop><stop offset="1" stop-color="#9680FF"></stop></linearGradient><linearGradient id="paint1_linear_2671_9655" x1="32.6612" y1="41.5147" x2="73.6607" y2="2.51092" gradientUnits="userSpaceOnUse"><stop stop-color="#1B147C"></stop><stop offset="1" stop-color="#362999"></stop></linearGradient><linearGradient id="paint2_linear_2671_9655" x1="9.83472" y1="95.2768" x2="34.369" y2="62.7805" gradientUnits="userSpaceOnUse"><stop stop-color="#9680FF"></stop><stop offset="1" stop-color="#C8BDFF"></stop></linearGradient></defs></svg>